<svg width="110" height="139" viewBox="0 0 110 139" fill="none" xmlns="http://www.w3.org/2000/svg">
<path d="M54.9996 134C27.3859 134 5 111.614 5 84.0004C5 56.3857 27.3859 34 54.9996 34C82.6143 34 105 56.3857 105 84.0004C105 111.614 82.6143 134 54.9996 134Z" stroke="#468966" stroke-width="9"/>
<path d="M84.989 75C84.89 73.289 82.855 71.952 78.785 70.932C78.922 70.632 78.999 70.32 79 69.996V63H78.983C78.625 57.172 54.743 57 52 57C49.257 57 25.375 57.172 25.017 63H25V63.13V69.999C25.005 71.899 27.457 73.386 31.105 74.493C31.055 74.659 31.025 74.828 31.015 75H31V75.13V81.987C27.07 82.999 25.107 84.317 25.01 86H25V86.13V92.999C25.003 94.322 26.196 95.444 28.148 96.379C28.074 96.582 28.028 96.789 28.015 97.001H28V97.131V104C28.008 107.326 35.497 109.391 43.818 110.355C43.879 110.367 43.935 110.392 44 110.392C44.019 110.392 44.035 110.382 44.054 110.381C45.658 110.562 47.288 110.703 48.901 110.804C48.935 110.808 48.965 110.824 49 110.824C49.019 110.824 49.034 110.814 49.052 110.813C51.1 110.937 53.115 111 55 111C56.885 111 58.9 110.937 60.948 110.812C60.966 110.813 60.982 110.823 61 110.823C61.035 110.823 61.065 110.806 61.099 110.803C62.712 110.702 64.342 110.562 65.946 110.38C65.965 110.38 65.981 110.39 66 110.39C66.065 110.39 66.121 110.365 66.182 110.353C74.503 109.389 81.991 107.323 82 103.996V97H81.984C81.914 95.774 80.869 94.751 78.805 93.896C78.931 93.607 79 93.307 79 92.996V86.46C82.59 85.356 84.995 83.879 85 81.996V75H84.989ZM76.892 93.321L76.551 93.62C76.026 94.083 75.151 94.55 74 95V90.232C75.189 89.818 76.201 89.359 77 88.856V92.994C77 93.097 76.962 93.207 76.892 93.321ZM54.526 97.968C54.38 97.972 54.233 97.974 54.086 97.977C53.729 97.984 53.363 97.986 53.001 97.989V92.994C53.276 92.991 53.551 92.987 53.826 92.982C53.879 92.981 53.932 92.98 53.985 92.979C54.992 92.96 55.999 92.929 57.001 92.883V97.876C56.787 97.887 56.572 97.897 56.355 97.906C55.753 97.933 55.145 97.953 54.526 97.968ZM50.159 97.982C49.701 97.974 49.245 97.963 48.792 97.949C48.736 97.947 48.68 97.945 48.624 97.943C48.079 97.925 47.538 97.902 47.001 97.876V92.884C48.003 92.931 49.01 92.962 50.017 92.98C50.07 92.981 50.123 92.982 50.175 92.983C50.45 92.988 50.725 92.992 51 92.995V97.993C50.806 97.991 50.612 97.991 50.419 97.988C50.331 97.986 50.246 97.983 50.159 97.982ZM32.097 95.702C32.064 95.692 32.033 95.683 32 95.674V90.843C32.934 91.095 33.938 91.325 35 91.534V96.415C34.082 96.22 33.235 96.015 32.464 95.805C32.342 95.77 32.216 95.737 32.097 95.702ZM53.175 103.983C53.45 103.988 53.725 103.992 54 103.995V108.994C52.618 108.981 51.284 108.941 50 108.878V103.885C51.002 103.932 52.009 103.963 53.016 103.981C53.069 103.981 53.122 103.982 53.175 103.983ZM56.984 103.98C57.991 103.961 58.998 103.93 60 103.884V108.877C58.716 108.94 57.382 108.98 56 108.993V103.994C56.275 103.991 56.55 103.987 56.825 103.982C56.878 103.982 56.931 103.981 56.984 103.98ZM65 103.528V108.494C64.039 108.595 63.039 108.684 62 108.757V103.77C63.014 103.704 64.016 103.623 65 103.528ZM67 103.312C68.031 103.188 69.032 103.047 70 102.89V107.8C69.058 107.966 68.057 108.119 67 108.258V103.312ZM72 102.533C73.062 102.324 74.066 102.094 75 101.842V106.673C74.109 106.93 73.106 107.179 72 107.414V102.533ZM38 102.533V107.414C36.894 107.179 35.891 106.93 35 106.673V101.842C35.934 102.094 36.938 102.325 38 102.533ZM40 102.891C40.968 103.048 41.969 103.189 43 103.313V108.259C41.943 108.12 40.942 107.967 40 107.801V102.891ZM45 103.528C45.984 103.623 46.986 103.704 48 103.771V108.758C46.961 108.685 45.961 108.596 45 108.495V103.528ZM42.519 97.548C42.417 97.538 42.316 97.527 42.215 97.517C42.143 97.51 42.072 97.501 42 97.494V92.529C42.984 92.624 43.986 92.705 45 92.772V97.755C44.16 97.695 43.33 97.627 42.519 97.548ZM40 92.312V97.258C38.943 97.119 37.942 96.966 37 96.8V91.89C37.968 92.047 38.969 92.189 40 92.312ZM59.666 97.708C59.446 97.725 59.224 97.742 59 97.758V92.771C60.014 92.704 61.016 92.624 62 92.528V97.494C61.382 97.559 60.75 97.62 60.101 97.673C59.956 97.686 59.811 97.697 59.666 97.708ZM64 97.258V92.312C65.031 92.188 66.032 92.047 67 91.89V96.8C66.058 96.966 65.057 97.12 64 97.258ZM69 91.533C70.062 91.324 71.066 91.094 72 90.842V95.673C71.109 95.93 70.106 96.179 69 96.414V91.533ZM55.325 86.965C54.573 86.946 53.838 86.917 53.116 86.882C53.077 86.88 53.038 86.878 53 86.877V81.884C54.002 81.931 55.009 81.962 56.016 81.98C56.069 81.981 56.122 81.982 56.174 81.983C56.449 81.988 56.724 81.992 56.999 81.995V86.988C56.512 86.983 56.021 86.981 55.546 86.97C55.473 86.968 55.398 86.967 55.325 86.965ZM32 72.674V67.843C32.934 68.095 33.938 68.325 35 68.534V73.415C34.877 73.389 34.75 73.363 34.63 73.337C34.098 73.22 33.579 73.098 33.083 72.969C32.705 72.872 32.346 72.773 32 72.674ZM50.175 69.983C50.45 69.988 50.725 69.992 51 69.995V74.988C49.654 74.975 48.316 74.94 47 74.874V69.885C48.002 69.932 49.009 69.963 50.016 69.981C50.069 69.981 50.122 69.982 50.175 69.983ZM53.984 69.98C54.991 69.961 55.998 69.93 57 69.884V74.873C56.83 74.881 56.667 74.893 56.496 74.901C56.482 74.902 56.468 74.902 56.453 74.903C55.782 74.933 55.098 74.955 54.405 74.971C54.297 74.974 54.189 74.975 54.081 74.978C53.725 74.985 53.361 74.986 53 74.99V69.995C53.275 69.992 53.55 69.988 53.825 69.983C53.878 69.982 53.931 69.981 53.984 69.98ZM76.771 70.482L76.743 70.476L76.379 70.759C75.851 71.17 75.04 71.586 74 71.988V67.231C75.189 66.817 76.201 66.358 77 65.855V69.993C77 70.145 76.92 70.309 76.771 70.482ZM64 74.252V69.312C65.031 69.188 66.032 69.047 67 68.89V73.792C66.052 73.96 65.054 74.114 64 74.252ZM69 73.407V68.534C70.062 68.325 71.066 68.095 72 67.843V72.663C71.104 72.924 70.095 73.173 69 73.407ZM62 69.528V74.488C61.034 74.59 60.034 74.679 59 74.753V69.771C60.014 69.704 61.016 69.623 62 69.528ZM42 74.49V69.528C42.984 69.623 43.986 69.704 45 69.771V74.749C43.982 74.676 42.978 74.593 42 74.49ZM40 69.312V74.253C39.802 74.227 39.596 74.206 39.4 74.179C39.272 74.161 39.15 74.142 39.024 74.124C38.446 74.041 37.881 73.952 37.327 73.859C37.216 73.84 37.109 73.82 37 73.801V68.891C37.968 69.047 38.969 69.189 40 69.312ZM50.752 86.739C50.617 86.729 50.481 86.719 50.347 86.709C49.707 86.659 49.082 86.604 48.472 86.543C48.341 86.53 48.21 86.516 48.08 86.503C48.053 86.5 48.027 86.496 48 86.494V81.528C48.984 81.623 49.986 81.704 51 81.771V86.755C50.919 86.749 50.833 86.745 50.752 86.739ZM44.145 85.992C43.749 85.929 43.377 85.861 43 85.795V80.891C43.968 81.048 44.969 81.189 46 81.313V86.259C45.388 86.178 44.789 86.094 44.214 86.004C44.191 85.999 44.168 85.995 44.145 85.992ZM41 80.533V85.406C39.895 85.169 38.893 84.917 38 84.655V79.842C38.934 80.094 39.938 80.325 41 80.533ZM36 79.231V83.982C34.428 83.375 33.414 82.755 33.084 82.203L33.017 82.091C33.011 82.06 33.001 82.027 33 81.996V77.855C33.799 78.358 34.811 78.817 36 79.231ZM59.984 81.98C60.991 81.961 61.998 81.93 63 81.884V86.872C61.686 86.937 60.35 86.973 59 86.987V81.995C59.275 81.992 59.55 81.988 59.825 81.983C59.878 81.982 59.931 81.981 59.984 81.98ZM72.907 85.817C72.468 85.893 72.025 85.968 71.57 86.037C71.309 86.077 71.042 86.115 70.774 86.153C70.521 86.189 70.258 86.22 70.001 86.253V81.312C71.032 81.188 72.033 81.047 73.001 80.89V85.8C72.969 85.806 72.938 85.812 72.907 85.817ZM66.136 86.671C65.763 86.702 65.378 86.722 65 86.749V81.771C66.014 81.704 67.016 81.624 68 81.528V86.489C67.419 86.55 66.839 86.611 66.242 86.661C66.206 86.664 66.172 86.668 66.136 86.671ZM77.564 84.796C77.066 84.935 76.539 85.065 76.001 85.192C75.752 85.25 75.498 85.308 75.238 85.364C75.161 85.381 75.079 85.396 75.001 85.413V80.534C76.063 80.325 77.067 80.095 78.001 79.843V84.674C77.857 84.714 77.712 84.755 77.564 84.796ZM82.989 75.065C82.897 75.744 81.358 76.647 78.611 77.496C75.073 78.589 69.537 79.59 62.521 79.9C62.162 79.915 61.804 79.93 61.438 79.942C61.139 79.952 60.839 79.961 60.534 79.969C59.706 79.987 58.866 80 58 80C57.134 80 56.294 79.987 55.466 79.968C55.162 79.961 54.862 79.951 54.562 79.941C54.195 79.93 53.837 79.914 53.479 79.899C46.463 79.589 40.926 78.588 37.389 77.495C34.664 76.653 33.128 75.757 33.014 75.081C33.019 75.062 33.019 75.046 33.031 75.022C33.099 75.039 33.175 75.053 33.244 75.07C33.635 75.163 34.036 75.253 34.444 75.339C36.431 75.767 38.633 76.118 40.979 76.386C40.987 76.386 40.993 76.39 41 76.39C41.002 76.39 41.004 76.389 41.005 76.389C42.603 76.571 44.261 76.714 45.963 76.815C45.976 76.815 45.987 76.822 46 76.822C46.007 76.822 46.012 76.818 46.019 76.818C47.244 76.89 48.485 76.943 49.741 76.971C50.51 76.99 51.265 77 52 77C52.525 77 53.063 76.994 53.606 76.984C60.872 76.872 67.606 76.008 72.292 74.669C72.508 74.608 72.719 74.545 72.927 74.482C73.054 74.443 73.184 74.405 73.307 74.366C73.669 74.25 74.016 74.131 74.351 74.007C74.409 73.985 74.464 73.963 74.522 73.941C74.805 73.834 75.077 73.723 75.337 73.61C75.412 73.577 75.489 73.545 75.562 73.512C75.839 73.387 76.107 73.259 76.355 73.126C76.467 73.067 76.564 73.006 76.669 72.946C76.789 72.877 76.909 72.807 77.02 72.736C77.083 72.696 77.158 72.658 77.218 72.618C81.695 73.589 82.875 74.651 82.989 75.065ZM52 59C68.489 59 76.829 61.596 76.985 63.086C76.864 63.762 75.329 64.655 72.611 65.495C69.073 66.588 63.537 67.589 56.521 67.899C56.162 67.914 55.804 67.929 55.438 67.941C55.139 67.951 54.839 67.96 54.534 67.968C53.706 67.987 52.866 68 52 68C51.134 68 50.294 67.987 49.466 67.968C49.162 67.961 48.862 67.951 48.562 67.941C48.195 67.93 47.837 67.914 47.479 67.899C40.463 67.589 34.926 66.588 31.389 65.495C28.67 64.655 27.136 63.762 27.015 63.086C27.171 61.596 35.511 59 52 59ZM27 69.996V65.855C27.799 66.358 28.811 66.817 30 67.231V72.019C28.055 71.29 27.002 70.559 27 69.996ZM31.844 83.835C31.859 83.851 31.882 83.865 31.897 83.881C33.266 85.263 36.101 86.349 39.63 87.159C39.711 87.178 39.797 87.196 39.879 87.215C40.138 87.273 40.401 87.33 40.667 87.385C43.908 88.075 47.777 88.574 51.992 88.821C51.995 88.821 51.997 88.822 51.999 88.822C52.001 88.822 52.002 88.821 52.003 88.821C53.357 88.9 54.742 88.955 56.156 88.979C56.782 88.992 57.398 89 58 89C58.69 89 59.398 88.992 60.118 88.975C61.426 88.948 62.715 88.894 63.986 88.82C63.991 88.82 63.995 88.823 64 88.823C64.009 88.823 64.016 88.818 64.025 88.818C68.251 88.569 72.216 88.065 75.569 87.34C74.843 87.72 73.849 88.113 72.611 88.496C68.876 89.65 62.911 90.701 55.33 90.945C55.105 90.952 54.883 90.96 54.655 90.966C54.41 90.972 54.161 90.976 53.912 90.981C53.283 90.991 52.65 91 52 91C51.134 91 50.294 90.987 49.466 90.968C49.162 90.961 48.862 90.951 48.562 90.941C48.195 90.93 47.837 90.914 47.479 90.899C40.463 90.589 34.926 89.588 31.389 88.495C28.639 87.645 27.1 86.741 27.011 86.062C27.122 85.686 28.133 84.745 31.844 83.835ZM27 92.996V88.855C27.799 89.358 28.811 89.817 30 90.231V95L29.429 94.778L29.417 94.79C27.847 94.139 27.002 93.5 27 92.996ZM30 103.996V99.855C30.799 100.358 31.811 100.817 33 101.231V106.019C31.055 105.29 30.002 104.559 30 103.996ZM77 106.019V101.232C78.189 100.818 79.201 100.359 80 99.856V103.994C79.999 104.557 78.945 105.289 77 106.019ZM79.987 97.077C79.878 97.754 78.342 98.652 75.611 99.496C72.073 100.589 66.537 101.59 59.521 101.9C59.162 101.915 58.804 101.93 58.438 101.942C58.139 101.952 57.839 101.961 57.534 101.969C56.706 101.987 55.866 102 55 102C54.134 102 53.293 101.987 52.464 101.968C52.163 101.961 51.866 101.951 51.569 101.941C51.2 101.929 50.84 101.914 50.479 101.899C43.463 101.589 37.927 100.588 34.389 99.495C31.744 98.678 30.216 97.81 30.024 97.14C30.322 97.244 30.631 97.345 30.948 97.444C30.98 97.454 31.012 97.464 31.044 97.473C31.314 97.556 31.59 97.636 31.873 97.714C31.98 97.744 32.088 97.774 32.197 97.803C32.357 97.846 32.521 97.887 32.685 97.929C36.327 98.862 40.976 99.523 45.995 99.82C45.997 99.82 45.998 99.821 46 99.821C46.001 99.821 46.002 99.82 46.003 99.82C47.553 99.912 49.136 99.969 50.736 99.988C51.162 99.996 51.585 100 52 100C52.551 100 53.115 99.993 53.686 99.983C55.145 99.959 56.585 99.905 57.993 99.821C57.996 99.821 57.998 99.823 58.001 99.823C58.006 99.823 58.009 99.82 58.014 99.82C59.729 99.717 61.389 99.57 62.984 99.387C62.99 99.387 62.995 99.39 63.001 99.39C63.023 99.39 63.041 99.379 63.063 99.377C64.839 99.172 66.523 98.92 68.086 98.627C68.408 98.568 68.725 98.507 69.039 98.444C69.109 98.43 69.179 98.416 69.249 98.401C72.202 97.795 74.758 97.01 76.512 96.037C76.608 95.985 76.698 95.931 76.789 95.878C76.9 95.812 77.006 95.745 77.109 95.677C77.205 95.615 77.316 95.555 77.404 95.492C79.378 96.196 79.922 96.826 79.987 97.077ZM80 84.019V79.232C81.189 78.818 82.201 78.359 83 77.856V81.994C82.999 82.557 81.945 83.289 80 84.019Z" fill="#CDA434"/>
<path d="M52.6088 0V3.68293C51.1186 3.68293 44.4143 5.58148 44.4143 11.6685C44.4143 17.0835 49.2523 18.5577 52.6053 19.0415L52.6088 25.1608C50.1605 24.4619 49.7156 22.5782 49.3757 21.021H44C44.3327 27.111 49.6815 29.9434 52.6088 30.3735V34.1202H57.7189V30.4302C61.7639 30.2151 66.5544 26.7221 66.5544 21.9347C66.5544 16.4515 61.7826 14.8951 57.7189 14.4767V8.86736C59.3179 8.98068 60.5656 10.5672 60.7007 12.182H66.0232C66.0232 6.74259 61.0744 3.88124 57.6658 3.68293V0H52.6088ZM52.6372 8.92048V13.5702C49.0349 13.5135 48.9649 9.56562 52.6372 8.92048ZM57.7791 19.9161C62.2368 20.0295 62.7305 24.4778 57.772 25.1891L57.7791 19.9161Z" fill="#468966"/>
</svg>
